<?xml version="1.0" encoding="UTF-8" standalone="no"?>
<svg width="40px" height="40px" viewBox="0 0 48 48" version="1.1" xmlns="http://www.w3.org/2000/svg" xmlns:xlink="http://www.w3.org/1999/xlink">
    <g stroke="none" fill="none" fill-rule="evenodd">
        <path fill="#0b699e" d="M40.1894,38.8554 C38.0794,37.6034 34.9094,36.4514 31.5514,35.2374 C30.7134,34.9334 29.8574,34.6234 28.9994,34.3054 L28.9994,30.6114 C30.0034,29.9914 31.7674,28.3954 31.9794,24.7394 C32.7514,24.2874 33.2394,23.2854 33.2394,21.9994 C33.2394,20.8434 32.8454,19.9134 32.1994,19.4114 C32.6854,17.8994 33.5614,15.1234 32.9694,12.7574 C32.2754,9.9854 28.5134,8.9994 25.4994,8.9994 C22.8154,8.9994 19.5354,9.7814 18.3614,11.9114 C16.9534,11.8434 16.1714,12.4594 15.7814,12.9734 C14.5114,14.6514 15.3494,17.7094 15.8214,19.3954 C15.1654,19.8934 14.7614,20.8294 14.7614,21.9994 C14.7614,23.2854 15.2474,24.2874 16.0214,24.7394 C16.2314,28.3954 17.9974,29.9914 18.9994,30.6114 L18.9994,34.3074 C18.2294,34.5934 17.4394,34.8814 16.6474,35.1674 C13.4054,36.3414 10.0714,37.5574 7.8334,38.8834 C4.0794,34.8094 1.9994,29.5654 1.9994,23.9994 C1.9994,11.8694 11.8694,1.9994 23.9994,1.9994 C36.1314,1.9994 45.9994,11.8694 45.9994,23.9994 C45.9994,29.5514 43.9294,34.7874 40.1894,38.8554 M23.9994,-0.0006 C10.7674,-0.0006 -0.0006,10.7674 -0.0006,23.9994 C-0.0006,30.3594 2.4634,36.3534 6.9374,40.8754 L6.9394,40.8774 C11.4854,45.4714 17.5434,47.9994 23.9994,47.9994 C30.4674,47.9994 36.5354,45.4614 41.0834,40.8534 C45.5434,36.3314 47.9994,30.3474 47.9994,23.9994 C47.9994,10.7674 37.2334,-0.0006 23.9994,-0.0006"></path>
    </g>
</svg>
